<mxfile host="app.diagrams.net" modified="2020-04-02T15:42:36.474Z" agent="Mozilla/5.0 (Windows NT 10.0; Win64; x64) AppleWebKit/537.36 (KHTML, like Gecko) Chrome/80.0.3987.149 Safari/537.36" etag="cGkcZoIfdvYqaU8qkZao" version="12.9.3" type="github">
  <diagram id="BewtOXVVWgo3KW9isc1k" name="Page-1">
    <mxGraphModel dx="1422" dy="713" grid="1" gridSize="10" guides="1" tooltips="1" connect="1" arrows="1" fold="1" page="1" pageScale="1" pageWidth="1169" pageHeight="827" math="0" shadow="0">
      <root>
        <mxCell id="0" />
        <mxCell id="1" parent="0" />
        <mxCell id="0ufCBhRuUzzFeiTLiHuW-59" value="" style="ellipse;whiteSpace=wrap;html=1;dashed=1;fillColor=none;gradientColor=#ffffff;" parent="1" vertex="1">
          <mxGeometry x="586" y="253" width="332" height="152" as="geometry" />
        </mxCell>
        <mxCell id="0ufCBhRuUzzFeiTLiHuW-1" style="edgeStyle=orthogonalEdgeStyle;rounded=0;orthogonalLoop=1;jettySize=auto;html=1;exitX=1;exitY=0.5;exitDx=0;exitDy=0;entryX=0.5;entryY=1;entryDx=0;entryDy=0;" parent="1" source="0ufCBhRuUzzFeiTLiHuW-2" target="0ufCBhRuUzzFeiTLiHuW-4" edge="1">
          <mxGeometry relative="1" as="geometry" />
        </mxCell>
        <mxCell id="0ufCBhRuUzzFeiTLiHuW-2" value="yn" style="rounded=0;whiteSpace=wrap;html=1;" parent="1" vertex="1">
          <mxGeometry x="40" y="720" width="30" height="30" as="geometry" />
        </mxCell>
        <mxCell id="0ufCBhRuUzzFeiTLiHuW-3" value="" style="edgeStyle=orthogonalEdgeStyle;rounded=0;orthogonalLoop=1;jettySize=auto;html=1;entryX=0;entryY=0.5;entryDx=0;entryDy=0;" parent="1" source="0ufCBhRuUzzFeiTLiHuW-4" target="0ufCBhRuUzzFeiTLiHuW-38" edge="1">
          <mxGeometry relative="1" as="geometry">
            <mxPoint x="672" y="635" as="targetPoint" />
          </mxGeometry>
        </mxCell>
        <mxCell id="0ufCBhRuUzzFeiTLiHuW-4" value="-" style="ellipse;whiteSpace=wrap;html=1;aspect=fixed;" parent="1" vertex="1">
          <mxGeometry x="532" y="605" width="60" height="60" as="geometry" />
        </mxCell>
        <mxCell id="0ufCBhRuUzzFeiTLiHuW-5" style="edgeStyle=orthogonalEdgeStyle;rounded=0;orthogonalLoop=1;jettySize=auto;html=1;exitX=1;exitY=0.5;exitDx=0;exitDy=0;" parent="1" edge="1">
          <mxGeometry relative="1" as="geometry">
            <mxPoint x="131" y="535" as="sourcePoint" />
            <mxPoint x="211" y="605" as="targetPoint" />
          </mxGeometry>
        </mxCell>
        <mxCell id="0ufCBhRuUzzFeiTLiHuW-6" style="edgeStyle=orthogonalEdgeStyle;rounded=0;orthogonalLoop=1;jettySize=auto;html=1;exitX=1;exitY=0.5;exitDx=0;exitDy=0;entryX=0.5;entryY=1;entryDx=0;entryDy=0;" parent="1" edge="1">
          <mxGeometry relative="1" as="geometry">
            <mxPoint x="131" y="535" as="sourcePoint" />
            <mxPoint x="211" y="465" as="targetPoint" />
          </mxGeometry>
        </mxCell>
        <mxCell id="0ufCBhRuUzzFeiTLiHuW-7" style="edgeStyle=orthogonalEdgeStyle;rounded=0;orthogonalLoop=1;jettySize=auto;html=1;exitX=1;exitY=0.5;exitDx=0;exitDy=0;entryX=0;entryY=0.5;entryDx=0;entryDy=0;" parent="1" target="0ufCBhRuUzzFeiTLiHuW-17" edge="1">
          <mxGeometry relative="1" as="geometry">
            <mxPoint x="131" y="535" as="sourcePoint" />
          </mxGeometry>
        </mxCell>
        <mxCell id="0ufCBhRuUzzFeiTLiHuW-8" value="un" style="rounded=0;whiteSpace=wrap;html=1;" parent="1" vertex="1">
          <mxGeometry x="40" y="520" width="120" height="30" as="geometry" />
        </mxCell>
        <mxCell id="0ufCBhRuUzzFeiTLiHuW-9" style="edgeStyle=orthogonalEdgeStyle;rounded=0;orthogonalLoop=1;jettySize=auto;html=1;exitX=1;exitY=0.5;exitDx=0;exitDy=0;entryX=0;entryY=0.5;entryDx=0;entryDy=0;" parent="1" source="0ufCBhRuUzzFeiTLiHuW-11" edge="1">
          <mxGeometry relative="1" as="geometry">
            <mxPoint x="181" y="635" as="targetPoint" />
          </mxGeometry>
        </mxCell>
        <mxCell id="0ufCBhRuUzzFeiTLiHuW-10" style="edgeStyle=orthogonalEdgeStyle;rounded=0;orthogonalLoop=1;jettySize=auto;html=1;exitX=1;exitY=0.5;exitDx=0;exitDy=0;" parent="1" source="0ufCBhRuUzzFeiTLiHuW-11" target="0ufCBhRuUzzFeiTLiHuW-53" edge="1">
          <mxGeometry relative="1" as="geometry">
            <Array as="points">
              <mxPoint x="120" y="635" />
              <mxPoint x="120" y="715" />
            </Array>
          </mxGeometry>
        </mxCell>
        <mxCell id="0ufCBhRuUzzFeiTLiHuW-11" value="wn" style="rounded=0;whiteSpace=wrap;html=1;" parent="1" vertex="1">
          <mxGeometry x="40" y="580" width="30" height="110" as="geometry" />
        </mxCell>
        <mxCell id="0ufCBhRuUzzFeiTLiHuW-12" style="edgeStyle=orthogonalEdgeStyle;rounded=0;orthogonalLoop=1;jettySize=auto;html=1;exitX=1;exitY=0.5;exitDx=0;exitDy=0;entryX=0.5;entryY=0;entryDx=0;entryDy=0;" parent="1" edge="1">
          <mxGeometry relative="1" as="geometry">
            <mxPoint x="131" y="375" as="sourcePoint" />
            <Array as="points">
              <mxPoint x="211" y="375" />
            </Array>
            <mxPoint x="211" y="405" as="targetPoint" />
          </mxGeometry>
        </mxCell>
        <mxCell id="0ufCBhRuUzzFeiTLiHuW-13" style="edgeStyle=orthogonalEdgeStyle;rounded=0;orthogonalLoop=1;jettySize=auto;html=1;exitX=0.5;exitY=0;exitDx=0;exitDy=0;entryX=0.5;entryY=0;entryDx=0;entryDy=0;" parent="1" target="0ufCBhRuUzzFeiTLiHuW-49" edge="1">
          <mxGeometry relative="1" as="geometry">
            <mxPoint x="100" y="320" as="sourcePoint" />
            <Array as="points">
              <mxPoint x="100" y="240" />
              <mxPoint x="752" y="240" />
            </Array>
          </mxGeometry>
        </mxCell>
        <mxCell id="0ufCBhRuUzzFeiTLiHuW-14" style="edgeStyle=orthogonalEdgeStyle;rounded=0;orthogonalLoop=1;jettySize=auto;html=1;entryX=0;entryY=0.5;entryDx=0;entryDy=0;exitX=1;exitY=0.5;exitDx=0;exitDy=0;" parent="1" source="0ufCBhRuUzzFeiTLiHuW-75" target="0ufCBhRuUzzFeiTLiHuW-19" edge="1">
          <mxGeometry relative="1" as="geometry">
            <mxPoint x="360" y="635" as="sourcePoint" />
          </mxGeometry>
        </mxCell>
        <mxCell id="0ufCBhRuUzzFeiTLiHuW-16" style="edgeStyle=orthogonalEdgeStyle;rounded=0;orthogonalLoop=1;jettySize=auto;html=1;exitX=1;exitY=0.5;exitDx=0;exitDy=0;entryX=0;entryY=0.5;entryDx=0;entryDy=0;" parent="1" source="0ufCBhRuUzzFeiTLiHuW-17" target="0ufCBhRuUzzFeiTLiHuW-28" edge="1">
          <mxGeometry relative="1" as="geometry" />
        </mxCell>
        <mxCell id="0ufCBhRuUzzFeiTLiHuW-17" value="A*B+lambda" style="ellipse;whiteSpace=wrap;html=1;aspect=fixed;" parent="1" vertex="1">
          <mxGeometry x="377" y="505" width="60" height="60" as="geometry" />
        </mxCell>
        <mxCell id="0ufCBhRuUzzFeiTLiHuW-18" style="edgeStyle=orthogonalEdgeStyle;rounded=0;orthogonalLoop=1;jettySize=auto;html=1;exitX=1;exitY=0.5;exitDx=0;exitDy=0;" parent="1" source="0ufCBhRuUzzFeiTLiHuW-19" target="0ufCBhRuUzzFeiTLiHuW-4" edge="1">
          <mxGeometry relative="1" as="geometry" />
        </mxCell>
        <mxCell id="0ufCBhRuUzzFeiTLiHuW-19" value="yn_hat" style="rounded=0;whiteSpace=wrap;html=1;fillColor=#f8cecc;strokeColor=#b85450;" parent="1" vertex="1">
          <mxGeometry x="437" y="620" width="30" height="30" as="geometry" />
        </mxCell>
        <mxCell id="0ufCBhRuUzzFeiTLiHuW-22" value="H" style="text;html=1;strokeColor=none;fillColor=none;align=center;verticalAlign=middle;whiteSpace=wrap;rounded=0;" parent="1" vertex="1">
          <mxGeometry x="181" y="490" width="40" height="20" as="geometry" />
        </mxCell>
        <mxCell id="0ufCBhRuUzzFeiTLiHuW-23" style="edgeStyle=orthogonalEdgeStyle;rounded=0;orthogonalLoop=1;jettySize=auto;html=1;exitX=1;exitY=0.5;exitDx=0;exitDy=0;" parent="1" source="0ufCBhRuUzzFeiTLiHuW-25" target="0ufCBhRuUzzFeiTLiHuW-40" edge="1">
          <mxGeometry relative="1" as="geometry" />
        </mxCell>
        <mxCell id="0ufCBhRuUzzFeiTLiHuW-24" style="edgeStyle=orthogonalEdgeStyle;rounded=0;orthogonalLoop=1;jettySize=auto;html=1;exitX=1;exitY=0.5;exitDx=0;exitDy=0;entryX=0.5;entryY=0;entryDx=0;entryDy=0;" parent="1" source="0ufCBhRuUzzFeiTLiHuW-25" target="0ufCBhRuUzzFeiTLiHuW-17" edge="1">
          <mxGeometry relative="1" as="geometry" />
        </mxCell>
        <mxCell id="0ufCBhRuUzzFeiTLiHuW-25" value="PuH" style="rounded=0;whiteSpace=wrap;html=1;fillColor=#f8cecc;strokeColor=#b85450;" parent="1" vertex="1">
          <mxGeometry x="347" y="380" width="30" height="110" as="geometry" />
        </mxCell>
        <mxCell id="0ufCBhRuUzzFeiTLiHuW-26" style="edgeStyle=orthogonalEdgeStyle;rounded=0;orthogonalLoop=1;jettySize=auto;html=1;exitX=0.5;exitY=0;exitDx=0;exitDy=0;entryX=0;entryY=0.5;entryDx=0;entryDy=0;" parent="1" source="0ufCBhRuUzzFeiTLiHuW-25" target="0ufCBhRuUzzFeiTLiHuW-47" edge="1">
          <mxGeometry relative="1" as="geometry">
            <mxPoint x="370" y="328" as="sourcePoint" />
          </mxGeometry>
        </mxCell>
        <mxCell id="0ufCBhRuUzzFeiTLiHuW-27" style="edgeStyle=orthogonalEdgeStyle;rounded=0;orthogonalLoop=1;jettySize=auto;html=1;exitX=1;exitY=0.5;exitDx=0;exitDy=0;entryX=0;entryY=0.5;entryDx=0;entryDy=0;" parent="1" source="0ufCBhRuUzzFeiTLiHuW-28" target="0ufCBhRuUzzFeiTLiHuW-40" edge="1">
          <mxGeometry relative="1" as="geometry" />
        </mxCell>
        <mxCell id="0ufCBhRuUzzFeiTLiHuW-28" value="k" style="rounded=0;whiteSpace=wrap;html=1;fillColor=#f8cecc;strokeColor=#b85450;" parent="1" vertex="1">
          <mxGeometry x="477" y="520" width="30" height="30" as="geometry" />
        </mxCell>
        <mxCell id="0ufCBhRuUzzFeiTLiHuW-29" value="" style="edgeStyle=orthogonalEdgeStyle;rounded=0;orthogonalLoop=1;jettySize=auto;html=1;" parent="1" source="0ufCBhRuUzzFeiTLiHuW-30" edge="1">
          <mxGeometry relative="1" as="geometry">
            <mxPoint x="370" y="150" as="targetPoint" />
          </mxGeometry>
        </mxCell>
        <mxCell id="0ufCBhRuUzzFeiTLiHuW-30" value="*(dot product)" style="ellipse;whiteSpace=wrap;html=1;aspect=fixed;" parent="1" vertex="1">
          <mxGeometry x="230" y="120" width="60" height="60" as="geometry" />
        </mxCell>
        <mxCell id="0ufCBhRuUzzFeiTLiHuW-31" value="" style="endArrow=classic;html=1;entryX=0;entryY=0.5;entryDx=0;entryDy=0;" parent="1" target="0ufCBhRuUzzFeiTLiHuW-30" edge="1">
          <mxGeometry width="50" height="50" relative="1" as="geometry">
            <mxPoint x="180" y="150" as="sourcePoint" />
            <mxPoint x="160" y="140" as="targetPoint" />
          </mxGeometry>
        </mxCell>
        <mxCell id="0ufCBhRuUzzFeiTLiHuW-32" value="" style="endArrow=classic;html=1;entryX=0.5;entryY=0;entryDx=0;entryDy=0;" parent="1" target="0ufCBhRuUzzFeiTLiHuW-30" edge="1">
          <mxGeometry width="50" height="50" relative="1" as="geometry">
            <mxPoint x="260" y="80" as="sourcePoint" />
            <mxPoint x="260" y="80" as="targetPoint" />
          </mxGeometry>
        </mxCell>
        <mxCell id="0ufCBhRuUzzFeiTLiHuW-33" value="B" style="text;html=1;strokeColor=none;fillColor=none;align=center;verticalAlign=middle;whiteSpace=wrap;rounded=0;" parent="1" vertex="1">
          <mxGeometry x="160" y="130" width="40" height="20" as="geometry" />
        </mxCell>
        <mxCell id="0ufCBhRuUzzFeiTLiHuW-34" value="A" style="text;html=1;strokeColor=none;fillColor=none;align=center;verticalAlign=middle;whiteSpace=wrap;rounded=0;" parent="1" vertex="1">
          <mxGeometry x="230" y="70" width="40" height="20" as="geometry" />
        </mxCell>
        <mxCell id="0ufCBhRuUzzFeiTLiHuW-35" value="C" style="text;html=1;strokeColor=none;fillColor=none;align=center;verticalAlign=middle;whiteSpace=wrap;rounded=0;" parent="1" vertex="1">
          <mxGeometry x="327" y="131" width="40" height="20" as="geometry" />
        </mxCell>
        <mxCell id="0ufCBhRuUzzFeiTLiHuW-36" value="C=A*B" style="text;html=1;strokeColor=none;fillColor=none;align=center;verticalAlign=middle;whiteSpace=wrap;rounded=0;" parent="1" vertex="1">
          <mxGeometry x="241" y="50" width="40" height="20" as="geometry" />
        </mxCell>
        <mxCell id="0ufCBhRuUzzFeiTLiHuW-37" style="edgeStyle=orthogonalEdgeStyle;rounded=0;orthogonalLoop=1;jettySize=auto;html=1;exitX=1;exitY=0.5;exitDx=0;exitDy=0;entryX=0;entryY=0.5;entryDx=0;entryDy=0;" parent="1" source="0ufCBhRuUzzFeiTLiHuW-38" target="0ufCBhRuUzzFeiTLiHuW-45" edge="1">
          <mxGeometry relative="1" as="geometry" />
        </mxCell>
        <mxCell id="0ufCBhRuUzzFeiTLiHuW-38" value="e" style="rounded=0;whiteSpace=wrap;html=1;" parent="1" vertex="1">
          <mxGeometry x="642" y="620" width="30" height="30" as="geometry" />
        </mxCell>
        <mxCell id="0ufCBhRuUzzFeiTLiHuW-39" style="edgeStyle=orthogonalEdgeStyle;rounded=0;orthogonalLoop=1;jettySize=auto;html=1;exitX=1;exitY=0.5;exitDx=0;exitDy=0;entryX=0;entryY=0.5;entryDx=0;entryDy=0;" parent="1" source="0ufCBhRuUzzFeiTLiHuW-40" target="0ufCBhRuUzzFeiTLiHuW-43" edge="1">
          <mxGeometry relative="1" as="geometry" />
        </mxCell>
        <mxCell id="0ufCBhRuUzzFeiTLiHuW-40" value="divide" style="ellipse;whiteSpace=wrap;html=1;aspect=fixed;" parent="1" vertex="1">
          <mxGeometry x="537" y="505" width="60" height="60" as="geometry" />
        </mxCell>
        <mxCell id="0ufCBhRuUzzFeiTLiHuW-41" style="edgeStyle=orthogonalEdgeStyle;rounded=0;orthogonalLoop=1;jettySize=auto;html=1;exitX=0.5;exitY=0;exitDx=0;exitDy=0;" parent="1" source="0ufCBhRuUzzFeiTLiHuW-43" target="0ufCBhRuUzzFeiTLiHuW-47" edge="1">
          <mxGeometry relative="1" as="geometry" />
        </mxCell>
        <mxCell id="0ufCBhRuUzzFeiTLiHuW-42" style="edgeStyle=orthogonalEdgeStyle;rounded=0;orthogonalLoop=1;jettySize=auto;html=1;exitX=1;exitY=0.5;exitDx=0;exitDy=0;entryX=0.5;entryY=0;entryDx=0;entryDy=0;" parent="1" source="0ufCBhRuUzzFeiTLiHuW-43" target="0ufCBhRuUzzFeiTLiHuW-45" edge="1">
          <mxGeometry relative="1" as="geometry" />
        </mxCell>
        <mxCell id="0ufCBhRuUzzFeiTLiHuW-43" value="Kn" style="rounded=0;whiteSpace=wrap;html=1;fillColor=#e1d5e7;strokeColor=#9673a6;" parent="1" vertex="1">
          <mxGeometry x="642" y="480" width="30" height="110" as="geometry" />
        </mxCell>
        <mxCell id="0ufCBhRuUzzFeiTLiHuW-44" style="edgeStyle=orthogonalEdgeStyle;rounded=0;orthogonalLoop=1;jettySize=auto;html=1;exitX=0.5;exitY=1;exitDx=0;exitDy=0;entryX=0.5;entryY=0;entryDx=0;entryDy=0;" parent="1" source="0ufCBhRuUzzFeiTLiHuW-45" target="0ufCBhRuUzzFeiTLiHuW-53" edge="1">
          <mxGeometry relative="1" as="geometry" />
        </mxCell>
        <mxCell id="0ufCBhRuUzzFeiTLiHuW-45" value="*" style="ellipse;whiteSpace=wrap;html=1;aspect=fixed;" parent="1" vertex="1">
          <mxGeometry x="823" y="605" width="60" height="60" as="geometry" />
        </mxCell>
        <mxCell id="0ufCBhRuUzzFeiTLiHuW-46" style="edgeStyle=orthogonalEdgeStyle;rounded=0;orthogonalLoop=1;jettySize=auto;html=1;exitX=1;exitY=0.5;exitDx=0;exitDy=0;entryX=0;entryY=0.5;entryDx=0;entryDy=0;" parent="1" source="0ufCBhRuUzzFeiTLiHuW-47" target="0ufCBhRuUzzFeiTLiHuW-49" edge="1">
          <mxGeometry relative="1" as="geometry">
            <mxPoint x="797" y="328" as="targetPoint" />
          </mxGeometry>
        </mxCell>
        <mxCell id="0ufCBhRuUzzFeiTLiHuW-47" value="*(dot product)" style="ellipse;whiteSpace=wrap;html=1;aspect=fixed;" parent="1" vertex="1">
          <mxGeometry x="627" y="298" width="60" height="60" as="geometry" />
        </mxCell>
        <mxCell id="0ufCBhRuUzzFeiTLiHuW-48" style="edgeStyle=orthogonalEdgeStyle;rounded=0;orthogonalLoop=1;jettySize=auto;html=1;exitX=1;exitY=0.5;exitDx=0;exitDy=0;entryX=0;entryY=0.5;entryDx=0;entryDy=0;" parent="1" source="0ufCBhRuUzzFeiTLiHuW-49" target="0ufCBhRuUzzFeiTLiHuW-51" edge="1">
          <mxGeometry relative="1" as="geometry">
            <mxPoint x="1057" y="328" as="targetPoint" />
          </mxGeometry>
        </mxCell>
        <mxCell id="0ufCBhRuUzzFeiTLiHuW-49" value="-" style="ellipse;whiteSpace=wrap;html=1;aspect=fixed;" parent="1" vertex="1">
          <mxGeometry x="722" y="298" width="60" height="60" as="geometry" />
        </mxCell>
        <mxCell id="0ufCBhRuUzzFeiTLiHuW-50" style="edgeStyle=orthogonalEdgeStyle;rounded=0;orthogonalLoop=1;jettySize=auto;html=1;exitX=1;exitY=0.5;exitDx=0;exitDy=0;" parent="1" source="0ufCBhRuUzzFeiTLiHuW-51" edge="1">
          <mxGeometry relative="1" as="geometry">
            <mxPoint x="1067" y="328" as="targetPoint" />
          </mxGeometry>
        </mxCell>
        <mxCell id="0ufCBhRuUzzFeiTLiHuW-51" value="/lambda" style="ellipse;whiteSpace=wrap;html=1;aspect=fixed;" parent="1" vertex="1">
          <mxGeometry x="813" y="298" width="60" height="60" as="geometry" />
        </mxCell>
        <mxCell id="0ufCBhRuUzzFeiTLiHuW-52" style="edgeStyle=orthogonalEdgeStyle;rounded=0;orthogonalLoop=1;jettySize=auto;html=1;exitX=1;exitY=0.5;exitDx=0;exitDy=0;" parent="1" source="0ufCBhRuUzzFeiTLiHuW-53" edge="1">
          <mxGeometry relative="1" as="geometry">
            <mxPoint x="960" y="715" as="targetPoint" />
          </mxGeometry>
        </mxCell>
        <mxCell id="0ufCBhRuUzzFeiTLiHuW-53" value="+" style="ellipse;whiteSpace=wrap;html=1;aspect=fixed;" parent="1" vertex="1">
          <mxGeometry x="823" y="685" width="60" height="60" as="geometry" />
        </mxCell>
        <mxCell id="0ufCBhRuUzzFeiTLiHuW-54" value="Pn+1" style="text;html=1;align=center;verticalAlign=middle;resizable=0;points=[];autosize=1;" parent="1" vertex="1">
          <mxGeometry x="1080" y="318" width="40" height="20" as="geometry" />
        </mxCell>
        <mxCell id="0ufCBhRuUzzFeiTLiHuW-55" value="wn+1" style="text;html=1;align=center;verticalAlign=middle;resizable=0;points=[];autosize=1;" parent="1" vertex="1">
          <mxGeometry x="967" y="705" width="40" height="20" as="geometry" />
        </mxCell>
        <mxCell id="0ufCBhRuUzzFeiTLiHuW-56" value="M=50,4*M*M=10000" style="text;html=1;align=center;verticalAlign=middle;resizable=0;points=[];autosize=1;" parent="1" vertex="1">
          <mxGeometry x="477" y="110" width="130" height="20" as="geometry" />
        </mxCell>
        <mxCell id="0ufCBhRuUzzFeiTLiHuW-57" value="时钟为250MHz，10000个点总计时间为400ms。" style="text;html=1;align=center;verticalAlign=middle;resizable=0;points=[];autosize=1;" parent="1" vertex="1">
          <mxGeometry x="402" y="138" width="270" height="20" as="geometry" />
        </mxCell>
        <mxCell id="0ufCBhRuUzzFeiTLiHuW-58" value="M=15,4*M*M = 1125,大约36ms" style="text;html=1;align=center;verticalAlign=middle;resizable=0;points=[];autosize=1;" parent="1" vertex="1">
          <mxGeometry x="457" y="90" width="180" height="20" as="geometry" />
        </mxCell>
        <mxCell id="0ufCBhRuUzzFeiTLiHuW-60" value="" style="ellipse;whiteSpace=wrap;html=1;dashed=1;fillColor=none;gradientColor=#ffffff;" parent="1" vertex="1">
          <mxGeometry x="790" y="565" width="120" height="195" as="geometry" />
        </mxCell>
        <mxCell id="0ufCBhRuUzzFeiTLiHuW-61" value="Pn" style="shape=internalStorage;whiteSpace=wrap;html=1;backgroundOutline=1;fillColor=#f8cecc;strokeColor=#b85450;" parent="1" vertex="1">
          <mxGeometry x="40" y="320" width="120" height="110" as="geometry" />
        </mxCell>
        <mxCell id="0ufCBhRuUzzFeiTLiHuW-62" value="k is a real number" style="text;html=1;align=center;verticalAlign=middle;resizable=0;points=[];autosize=1;" parent="1" vertex="1">
          <mxGeometry x="427" y="560" width="110" height="20" as="geometry" />
        </mxCell>
        <mxCell id="0ufCBhRuUzzFeiTLiHuW-63" value="H" style="text;html=1;align=center;verticalAlign=middle;resizable=0;points=[];autosize=1;" parent="1" vertex="1">
          <mxGeometry x="377" y="310" width="20" height="20" as="geometry" />
        </mxCell>
        <mxCell id="0ufCBhRuUzzFeiTLiHuW-64" value="PE" style="text;html=1;align=center;verticalAlign=middle;resizable=0;points=[];autosize=1;" parent="1" vertex="1">
          <mxGeometry x="752" y="410" width="30" height="20" as="geometry" />
        </mxCell>
        <mxCell id="0ufCBhRuUzzFeiTLiHuW-71" style="edgeStyle=orthogonalEdgeStyle;rounded=0;orthogonalLoop=1;jettySize=auto;html=1;exitX=1;exitY=0.5;exitDx=0;exitDy=0;entryX=0;entryY=0.5;entryDx=0;entryDy=0;" parent="1" source="0ufCBhRuUzzFeiTLiHuW-67" target="0ufCBhRuUzzFeiTLiHuW-68" edge="1">
          <mxGeometry relative="1" as="geometry" />
        </mxCell>
        <mxCell id="0ufCBhRuUzzFeiTLiHuW-67" value="*" style="ellipse;whiteSpace=wrap;html=1;aspect=fixed;" parent="1" vertex="1">
          <mxGeometry x="181" y="405" width="60" height="60" as="geometry" />
        </mxCell>
        <mxCell id="0ufCBhRuUzzFeiTLiHuW-72" style="edgeStyle=orthogonalEdgeStyle;rounded=0;orthogonalLoop=1;jettySize=auto;html=1;exitX=1;exitY=0.5;exitDx=0;exitDy=0;entryX=0;entryY=0.5;entryDx=0;entryDy=0;" parent="1" source="0ufCBhRuUzzFeiTLiHuW-68" target="0ufCBhRuUzzFeiTLiHuW-25" edge="1">
          <mxGeometry relative="1" as="geometry" />
        </mxCell>
        <mxCell id="0ufCBhRuUzzFeiTLiHuW-68" value="acc" style="ellipse;whiteSpace=wrap;html=1;aspect=fixed;" parent="1" vertex="1">
          <mxGeometry x="269" y="405" width="60" height="60" as="geometry" />
        </mxCell>
        <mxCell id="0ufCBhRuUzzFeiTLiHuW-73" style="edgeStyle=orthogonalEdgeStyle;rounded=0;orthogonalLoop=1;jettySize=auto;html=1;exitX=1;exitY=0.5;exitDx=0;exitDy=0;entryX=0;entryY=0.5;entryDx=0;entryDy=0;" parent="1" source="0ufCBhRuUzzFeiTLiHuW-74" target="0ufCBhRuUzzFeiTLiHuW-75" edge="1">
          <mxGeometry relative="1" as="geometry" />
        </mxCell>
        <mxCell id="0ufCBhRuUzzFeiTLiHuW-74" value="*" style="ellipse;whiteSpace=wrap;html=1;aspect=fixed;" parent="1" vertex="1">
          <mxGeometry x="181" y="605" width="60" height="60" as="geometry" />
        </mxCell>
        <mxCell id="0ufCBhRuUzzFeiTLiHuW-75" value="acc" style="ellipse;whiteSpace=wrap;html=1;aspect=fixed;" parent="1" vertex="1">
          <mxGeometry x="269" y="605" width="60" height="60" as="geometry" />
        </mxCell>
        <mxCell id="8H5kr53uFf9QW3vQuuuc-16" value="PuH" style="shape=umlLifeline;participant=umlEntity;perimeter=lifelinePerimeter;whiteSpace=wrap;html=1;container=1;collapsible=0;recursiveResize=0;verticalAlign=top;spacingTop=36;labelBackgroundColor=#ffffff;outlineConnect=0;" vertex="1" parent="1">
          <mxGeometry x="279" y="780" width="40" height="300" as="geometry" />
        </mxCell>
        <mxCell id="8H5kr53uFf9QW3vQuuuc-17" value="k" style="shape=umlLifeline;participant=umlEntity;perimeter=lifelinePerimeter;whiteSpace=wrap;html=1;container=1;collapsible=0;recursiveResize=0;verticalAlign=top;spacingTop=36;labelBackgroundColor=#ffffff;outlineConnect=0;" vertex="1" parent="1">
          <mxGeometry x="362" y="780" width="40" height="300" as="geometry" />
        </mxCell>
        <mxCell id="8H5kr53uFf9QW3vQuuuc-22" value="Kn" style="shape=umlLifeline;participant=umlEntity;perimeter=lifelinePerimeter;whiteSpace=wrap;html=1;container=1;collapsible=0;recursiveResize=0;verticalAlign=top;spacingTop=36;labelBackgroundColor=#ffffff;outlineConnect=0;" vertex="1" parent="1">
          <mxGeometry x="462" y="780" width="40" height="300" as="geometry" />
        </mxCell>
        <mxCell id="8H5kr53uFf9QW3vQuuuc-25" value="" style="endArrow=classic;html=1;" edge="1" parent="1" target="8H5kr53uFf9QW3vQuuuc-16">
          <mxGeometry width="50" height="50" relative="1" as="geometry">
            <mxPoint x="40" y="880" as="sourcePoint" />
            <mxPoint x="120" y="880" as="targetPoint" />
          </mxGeometry>
        </mxCell>
        <mxCell id="8H5kr53uFf9QW3vQuuuc-26" value="cal_PuH : M*M" style="text;html=1;align=center;verticalAlign=middle;resizable=0;points=[];autosize=1;" vertex="1" parent="1">
          <mxGeometry x="131" y="860" width="100" height="20" as="geometry" />
        </mxCell>
        <mxCell id="8H5kr53uFf9QW3vQuuuc-27" value="" style="endArrow=classic;html=1;" edge="1" parent="1">
          <mxGeometry width="50" height="50" relative="1" as="geometry">
            <mxPoint x="490" y="880" as="sourcePoint" />
            <mxPoint x="748.5" y="880" as="targetPoint" />
          </mxGeometry>
        </mxCell>
        <mxCell id="8H5kr53uFf9QW3vQuuuc-29" value="cal_Pn:M*(M+1)/2" style="text;html=1;align=center;verticalAlign=middle;resizable=0;points=[];autosize=1;" vertex="1" parent="1">
          <mxGeometry x="572" y="860" width="110" height="20" as="geometry" />
        </mxCell>
        <mxCell id="8H5kr53uFf9QW3vQuuuc-30" value="" style="endArrow=classic;html=1;" edge="1" parent="1">
          <mxGeometry width="50" height="50" relative="1" as="geometry">
            <mxPoint x="490" y="1040" as="sourcePoint" />
            <mxPoint x="570" y="1040" as="targetPoint" />
          </mxGeometry>
        </mxCell>
        <mxCell id="8H5kr53uFf9QW3vQuuuc-31" value="cal_wn : M" style="text;html=1;align=center;verticalAlign=middle;resizable=0;points=[];autosize=1;" vertex="1" parent="1">
          <mxGeometry x="480" y="1010" width="70" height="20" as="geometry" />
        </mxCell>
        <mxCell id="8H5kr53uFf9QW3vQuuuc-32" value="" style="endArrow=classic;html=1;" edge="1" parent="1">
          <mxGeometry width="50" height="50" relative="1" as="geometry">
            <mxPoint x="40" y="1040" as="sourcePoint" />
            <mxPoint x="110" y="1040" as="targetPoint" />
          </mxGeometry>
        </mxCell>
        <mxCell id="8H5kr53uFf9QW3vQuuuc-33" value="cal_yn_hat: M" style="text;html=1;align=center;verticalAlign=middle;resizable=0;points=[];autosize=1;" vertex="1" parent="1">
          <mxGeometry x="30" y="1010" width="90" height="20" as="geometry" />
        </mxCell>
        <mxCell id="8H5kr53uFf9QW3vQuuuc-36" value="" style="endArrow=classic;html=1;" edge="1" parent="1">
          <mxGeometry width="50" height="50" relative="1" as="geometry">
            <mxPoint x="130" y="1040" as="sourcePoint" />
            <mxPoint x="200" y="1040" as="targetPoint" />
          </mxGeometry>
        </mxCell>
        <mxCell id="8H5kr53uFf9QW3vQuuuc-37" value="cal_err :&amp;nbsp; 4" style="text;html=1;align=center;verticalAlign=middle;resizable=0;points=[];autosize=1;" vertex="1" parent="1">
          <mxGeometry x="131" y="1010" width="70" height="20" as="geometry" />
        </mxCell>
        <mxCell id="8H5kr53uFf9QW3vQuuuc-39" value="" style="endArrow=classic;html=1;" edge="1" parent="1">
          <mxGeometry width="50" height="50" relative="1" as="geometry">
            <mxPoint x="306" y="920" as="sourcePoint" />
            <mxPoint x="376" y="920" as="targetPoint" />
          </mxGeometry>
        </mxCell>
        <mxCell id="8H5kr53uFf9QW3vQuuuc-40" value="cal_k :&amp;nbsp; M" style="text;html=1;align=center;verticalAlign=middle;resizable=0;points=[];autosize=1;" vertex="1" parent="1">
          <mxGeometry x="307" y="890" width="70" height="20" as="geometry" />
        </mxCell>
        <mxCell id="8H5kr53uFf9QW3vQuuuc-41" value="" style="endArrow=classic;html=1;" edge="1" parent="1">
          <mxGeometry width="50" height="50" relative="1" as="geometry">
            <mxPoint x="396" y="920" as="sourcePoint" />
            <mxPoint x="466" y="920" as="targetPoint" />
          </mxGeometry>
        </mxCell>
        <mxCell id="8H5kr53uFf9QW3vQuuuc-42" value="cal_Kn :&amp;nbsp; M" style="text;html=1;align=center;verticalAlign=middle;resizable=0;points=[];autosize=1;" vertex="1" parent="1">
          <mxGeometry x="392" y="890" width="80" height="20" as="geometry" />
        </mxCell>
      </root>
    </mxGraphModel>
  </diagram>
</mxfile>
